<svg width="80" height="80" viewBox="0 0 80 80" fill="none" xmlns="http://www.w3.org/2000/svg">
<g id="bxs:bot">
<path id="Vector" d="M70.0003 36.5834V26.6668C70.0003 24.8986 69.2979 23.203 68.0477 21.9527C66.7975 20.7025 65.1018 20.0001 63.3337 20.0001H43.3337V15.6268C44.3503 14.7134 45.0003 13.4001 45.0003 11.9268C45.0003 10.6007 44.4735 9.32891 43.5359 8.39122C42.5982 7.45354 41.3264 6.92676 40.0003 6.92676C38.6742 6.92676 37.4025 7.45354 36.4648 8.39122C35.5271 9.32891 35.0003 10.6007 35.0003 11.9268C35.0003 13.4001 35.6503 14.7134 36.667 15.6268V20.0001H16.667C14.8989 20.0001 13.2032 20.7025 11.9529 21.9527C10.7027 23.203 10.0003 24.8986 10.0003 26.6668V36.6601L9.76033 36.6768C8.91995 36.7366 8.13351 37.1128 7.55949 37.7295C6.98547 38.3462 6.66655 39.1576 6.66699 40.0001V46.6668C6.66699 47.5508 7.01818 48.3987 7.6433 49.0238C8.26842 49.6489 9.11627 50.0001 10.0003 50.0001V66.6668C10.0003 68.4349 10.7027 70.1306 11.9529 71.3808C13.2032 72.631 14.8989 73.3334 16.667 73.3334H63.3337C65.1018 73.3334 66.7975 72.631 68.0477 71.3808C69.2979 70.1306 70.0003 68.4349 70.0003 66.6668V50.0001C70.8844 50.0001 71.7322 49.6489 72.3574 49.0238C72.9825 48.3987 73.3337 47.5508 73.3337 46.6668V40.2068C73.3723 39.6894 73.2901 39.1702 73.0937 38.6901C72.4203 37.0634 70.977 36.6734 70.0003 36.5834ZM23.3337 40.0001C23.3337 36.3201 25.5737 33.3334 28.3337 33.3334C31.0937 33.3334 33.3337 36.3201 33.3337 40.0001C33.3337 43.6801 31.0937 46.6668 28.3337 46.6668C25.5737 46.6668 23.3337 43.6801 23.3337 40.0001ZM53.327 60.0001C49.9903 59.9901 26.667 60.0001 26.667 60.0001V53.3334C26.667 53.3334 50.0037 53.3268 53.3403 53.3334L53.327 60.0001ZM51.667 46.6668C48.907 46.6668 46.667 43.6801 46.667 40.0001C46.667 36.3201 48.907 33.3334 51.667 33.3334C54.427 33.3334 56.667 36.3201 56.667 40.0001C56.667 43.6801 54.427 46.6668 51.667 46.6668Z" fill="white"/>
</g>
</svg>
