<svg width="64" height="64" viewBox="0 0 64 64" fill="none" xmlns="http://www.w3.org/2000/svg">
<g id="mingcute:airdrop-fill" clip-path="url(#clip0_302_225)">
<g id="Group">
<path id="Vector" fill-rule="evenodd" clip-rule="evenodd" d="M32 12C27.4929 11.9979 23.1172 13.5182 19.5824 16.3145C16.0476 19.1108 13.5609 23.019 12.5255 27.4056C11.4902 31.7922 11.9668 36.3999 13.8782 40.4816C15.7896 44.5634 19.0236 47.8799 23.056 49.8933C23.5258 50.1287 23.9446 50.4542 24.2886 50.8514C24.6325 51.2486 24.8949 51.7097 25.0607 52.2082C25.2265 52.7068 25.2924 53.2332 25.2548 53.7573C25.2172 54.2814 25.0767 54.7929 24.8413 55.2627C24.606 55.7324 24.2805 56.1513 23.8833 56.4952C23.4861 56.8392 23.025 57.1016 22.5264 57.2674C22.0278 57.4331 21.5015 57.4991 20.9774 57.4615C20.4533 57.4238 19.9418 57.2833 19.472 57.048C14.8215 54.7214 10.9109 51.1457 8.17816 46.7217C5.44545 42.2976 3.99869 37.2 4 32C4 16.536 16.536 4 32 4C47.464 4 60 16.536 60 32C60.0013 37.2 58.5546 42.2976 55.8218 46.7217C53.0891 51.1457 49.1785 54.7214 44.528 57.048C43.5792 57.5233 42.4805 57.6022 41.4736 57.2674C40.4666 56.9325 39.6339 56.2114 39.1587 55.2627C38.6834 54.3139 38.6045 53.2152 38.9393 52.2082C39.2741 51.2013 39.9952 50.3686 40.944 49.8933C44.9764 47.8799 48.2104 44.5634 50.1218 40.4816C52.0332 36.3999 52.5098 31.7922 51.4745 27.4056C50.4391 23.019 47.9524 19.1108 44.4176 16.3145C40.8828 13.5182 36.5071 11.9979 32 12ZM32 22.6667C29.8961 22.665 27.8533 23.3742 26.2031 24.6793C24.5529 25.9844 23.392 27.8087 22.9088 29.8564C22.4256 31.9041 22.6484 34.055 23.5411 35.9601C24.4338 37.8653 25.944 39.4129 27.8267 40.352C28.7545 40.8388 29.4542 41.6702 29.7755 42.6674C30.0969 43.6647 30.014 44.7482 29.5449 45.6851C29.0758 46.6219 28.2578 47.3373 27.2668 47.6775C26.2758 48.0176 25.1909 47.9553 24.2453 47.504C20.7537 45.757 17.9542 42.8824 16.3002 39.3458C14.6462 35.8091 14.2347 31.8177 15.1322 28.018C16.0298 24.2183 18.1838 20.8329 21.2455 18.4102C24.3072 15.9875 28.0971 14.6694 32.0013 14.6694C35.9056 14.6694 39.6955 15.9875 42.7572 18.4102C45.8188 20.8329 47.9729 24.2183 48.8704 28.018C49.768 31.8177 49.3564 35.8091 47.7024 39.3458C46.0485 42.8824 43.2489 45.757 39.7573 47.504C39.2872 47.7442 38.7742 47.8889 38.2479 47.9298C37.7216 47.9708 37.1924 47.9071 36.6908 47.7426C36.1892 47.5781 35.7252 47.3159 35.3254 46.9711C34.9256 46.6264 34.598 46.2059 34.3615 45.7339C34.125 45.262 33.9843 44.7479 33.9474 44.2213C33.9105 43.6947 33.9783 43.166 34.1467 42.6657C34.3151 42.1654 34.5809 41.7034 34.9287 41.3063C35.2766 40.9092 35.6996 40.5848 36.1733 40.352C38.056 39.4129 39.5662 37.8653 40.4589 35.9601C41.3516 34.055 41.5744 31.9041 41.0912 29.8564C40.608 27.8087 39.4471 25.9844 37.7969 24.6793C36.1467 23.3742 34.1039 22.665 32 22.6667ZM25.3333 32C25.3333 30.2319 26.0357 28.5362 27.286 27.286C28.5362 26.0357 30.2319 25.3333 32 25.3333C33.7681 25.3333 35.4638 26.0357 36.714 27.286C37.9643 28.5362 38.6667 30.2319 38.6667 32C38.6667 33.7681 37.9643 35.4638 36.714 36.714C35.4638 37.9643 33.7681 38.6667 32 38.6667C30.2319 38.6667 28.5362 37.9643 27.286 36.714C26.0357 35.4638 25.3333 33.7681 25.3333 32Z" fill="white"/>
</g>
</g>
<defs>
<clipPath id="clip0_302_225">
<rect width="64" height="64" fill="white"/>
</clipPath>
</defs>
</svg>
