<svg width="46" height="46" viewBox="0 0 46 46" fill="none" xmlns="http://www.w3.org/2000/svg">
<g id="streamline:graph-bar-decrease-solid" clip-path="url(#clip0_302_524)">
<path id="Vector" fill-rule="evenodd" clip-rule="evenodd" d="M4.32057 1.99121C4.58647 1.39438 5.07851 0.927579 5.6885 0.693443C6.29848 0.459306 6.97649 0.477 7.57343 0.742634L35.801 13.3203L36.9871 10.7082C37.1893 10.2638 37.5188 9.8895 37.934 9.63269C38.3492 9.37589 38.8313 9.24819 39.3191 9.26579C39.807 9.28339 40.2787 9.4455 40.6743 9.73155C41.0699 10.0176 41.3716 10.4147 41.5411 10.8725L44.1697 17.9696C44.3967 18.5802 44.3728 19.2558 44.1031 19.8487C43.8334 20.4416 43.3399 20.9036 42.7306 21.1338L35.6663 23.7952C35.2095 23.9684 34.7115 24.0018 34.2356 23.8914C33.7597 23.7809 33.3274 23.5315 32.9935 23.1747C32.6597 22.818 32.4395 22.3701 32.3607 21.888C32.282 21.4058 32.3484 20.9111 32.5514 20.4668L33.7606 17.8053L5.56915 5.24735C4.97232 4.98145 4.50552 4.48941 4.27138 3.87943C4.03725 3.26944 4.05494 2.58815 4.32057 1.99121ZM4.107 18.0715C3.23558 18.0715 2.39984 18.4177 1.78365 19.0339C1.16746 19.65 0.821289 20.4858 0.821289 21.3572V44.3572C0.821289 44.7929 0.994375 45.2108 1.30247 45.5189C1.61057 45.827 2.02843 46.0001 2.46415 46.0001H10.6784C11.1141 46.0001 11.532 45.827 11.8401 45.5189C12.1482 45.2108 12.3213 44.7929 12.3213 44.3572V21.3572C12.3213 20.4858 11.9751 19.65 11.3589 19.0339C10.7427 18.4177 9.907 18.0715 9.03557 18.0715H4.107ZM18.2126 23.9628C18.8286 23.3465 19.6642 23.0002 20.5356 23.0001H25.4641C26.3356 23.0001 27.1713 23.3462 27.7875 23.9624C28.4037 24.5786 28.7499 25.4144 28.7499 26.2858V44.3572C28.7499 44.7929 28.5768 45.2108 28.2687 45.5189C27.9606 45.827 27.5427 46.0001 27.107 46.0001H18.8927C18.457 46.0001 18.0391 45.827 17.731 45.5189C17.4229 45.2108 17.2499 44.7929 17.2499 44.3572V26.2858C17.25 25.4144 17.5963 24.5788 18.2126 23.9628ZM36.9641 27.9286C36.0927 27.9286 35.257 28.2748 34.6408 28.891C34.0246 29.5072 33.6784 30.3429 33.6784 31.2143V44.3572C33.6784 44.7929 33.8515 45.2108 34.1596 45.5189C34.4677 45.827 34.8856 46.0001 35.3213 46.0001H43.5356C43.9713 46.0001 44.3892 45.827 44.6973 45.5189C45.0053 45.2108 45.1784 44.7929 45.1784 44.3572V31.2143C45.1784 30.3429 44.8323 29.5072 44.2161 28.891C43.5999 28.2748 42.7641 27.9286 41.8927 27.9286H36.9641Z" fill="white"/>
</g>
<defs>
<clipPath id="clip0_302_524">
<rect width="46" height="46" fill="white"/>
</clipPath>
</defs>
</svg>
