<svg width="64" height="64" viewBox="0 0 64 64" fill="none" xmlns="http://www.w3.org/2000/svg">
<g id="healthicons:referral">
<g id="Group">
<path id="Vector" fill-rule="evenodd" clip-rule="evenodd" d="M17.3333 8C16.6261 8 15.9478 8.28095 15.4477 8.78105C14.9476 9.28115 14.6667 9.95942 14.6667 10.6667V12H8V37.3333H37.3333V12H30.6667V10.6667C30.6667 9.95942 30.3857 9.28115 29.8856 8.78105C29.3855 8.28095 28.7072 8 28 8H17.3333ZM28 24C28.7072 24 29.3855 23.719 29.8856 23.219C30.3857 22.7189 30.6667 22.0406 30.6667 21.3333V20H34.6667V34.6667H28V26.6667H17.3333V34.6667H10.6667V20H14.6667V21.3333C14.6667 22.0406 14.9476 22.7189 15.4477 23.219C15.9478 23.719 16.6261 24 17.3333 24H28ZM10.6667 14.6667H14.6667V17.3333H10.6667V14.6667ZM34.6667 17.3333H30.6667V14.6667H34.6667V17.3333ZM25.3333 29.3333V34.6667H20V29.3333H25.3333ZM21.3333 10.6667V14.6667H17.3333V17.3333H21.3333V21.3333H24V17.3333H28V14.6667H24V10.6667H21.3333Z" fill="white"/>
<path id="Vector_2" d="M40.0003 35.9998C40.0003 34.5853 40.5622 33.2288 41.5624 32.2286C42.5626 31.2284 43.9191 30.6665 45.3336 30.6665C46.7481 30.6665 48.1047 31.2284 49.1049 32.2286C50.105 33.2288 50.667 34.5853 50.667 35.9998C50.667 37.4143 50.105 38.7709 49.1049 39.7711C48.1047 40.7713 46.7481 41.3332 45.3336 41.3332C43.9191 41.3332 42.5626 40.7713 41.5624 39.7711C40.5622 38.7709 40.0003 37.4143 40.0003 35.9998ZM45.3336 43.9998C41.7736 43.9998 34.667 45.9492 34.667 49.8185V53.3332H22.667C21.695 53.3332 21.0643 52.9825 20.663 52.5305C20.2403 52.0545 20.0003 51.3825 20.0003 50.6665V45.8852L24.3909 50.2758L26.2763 48.3905L18.667 40.7812L11.0576 48.3905L12.943 50.2758L17.3336 45.8852V50.6665C17.3336 51.9505 17.7603 53.2785 18.671 54.3025C19.603 55.3505 20.9723 55.9998 22.667 55.9998H56.0003V49.8185C56.0003 45.9492 48.8936 43.9998 45.3336 43.9998Z" fill="white"/>
</g>
</g>
</svg>
