<svg width="65" height="64" viewBox="0 0 65 64" fill="none" xmlns="http://www.w3.org/2000/svg">
<g id="ph:money-fill">
<path id="Vector" d="M42.5 32C42.5 33.9778 41.9135 35.9112 40.8147 37.5557C39.7159 39.2002 38.1541 40.4819 36.3268 41.2388C34.4996 41.9957 32.4889 42.1937 30.5491 41.8079C28.6093 41.422 26.8275 40.4696 25.4289 39.0711C24.0304 37.6725 23.078 35.8907 22.6921 33.9509C22.3063 32.0111 22.5043 30.0004 23.2612 28.1732C24.0181 26.3459 25.2998 24.7841 26.9443 23.6853C28.5888 22.5865 30.5222 22 32.5 22C35.1522 22 37.6957 23.0536 39.5711 24.9289C41.4464 26.8043 42.5 29.3478 42.5 32ZM62.5 16V48C62.5 48.5304 62.2893 49.0391 61.9142 49.4142C61.5391 49.7893 61.0304 50 60.5 50H4.5C3.96957 50 3.46086 49.7893 3.08579 49.4142C2.71071 49.0391 2.5 48.5304 2.5 48V16C2.5 15.4696 2.71071 14.9609 3.08579 14.5858C3.46086 14.2107 3.96957 14 4.5 14H60.5C61.0304 14 61.5391 14.2107 61.9142 14.5858C62.2893 14.9609 62.5 15.4696 62.5 16ZM58.5 27.5875C56.229 26.916 54.1621 25.687 52.4875 24.0125C50.813 22.3379 49.584 20.271 48.9125 18H16.0875C15.416 20.271 14.187 22.3379 12.5125 24.0125C10.8379 25.687 8.77099 26.916 6.5 27.5875V36.4125C8.77099 37.084 10.8379 38.313 12.5125 39.9875C14.187 41.6621 15.416 43.729 16.0875 46H48.9125C49.584 43.729 50.813 41.6621 52.4875 39.9875C54.1621 38.313 56.229 37.084 58.5 36.4125V27.5875Z" fill="white"/>
</g>
</svg>
