<svg width="65" height="64" viewBox="0 0 65 64" fill="none" xmlns="http://www.w3.org/2000/svg">
<g id="solar:copy-bold-duotone">
<path id="Vector" d="M18.0996 30.392C18.0996 23.1227 18.0996 19.488 20.3476 17.2294C22.5983 14.9707 26.2169 14.9707 33.4596 14.9707H41.1396C48.3796 14.9707 52.0009 14.9707 54.2489 17.2294C56.4996 19.488 56.4996 23.1227 56.4996 30.392V43.2454C56.4996 50.5147 56.4996 54.1494 54.2489 56.408C52.0009 58.6667 48.3796 58.6667 41.1396 58.6667H33.4596C26.2169 58.6667 22.5983 58.6667 20.3476 56.408C18.0996 54.1494 18.0996 50.5147 18.0996 43.2454V30.392Z" fill="white"/>
<path id="Vector_2" opacity="0.5" d="M11.6253 8.45883C8.5 11.5815 8.5 16.6108 8.5 26.6668V32.0002C8.5 42.0562 8.5 47.0855 11.6253 50.2082C13.2707 51.8562 15.4467 52.6348 18.612 53.0028C18.1 50.7628 18.1 47.6802 18.1 43.2428V30.3922C18.1 23.1228 18.1 19.4882 20.348 17.2295C22.5987 14.9708 26.2173 14.9708 33.46 14.9708H41.14C45.5453 14.9708 48.6067 14.9708 50.8413 15.4775C50.4733 12.2962 49.6947 10.1122 48.0413 8.45883C44.9187 5.3335 39.8893 5.3335 29.8333 5.3335C19.7773 5.3335 14.748 5.3335 11.6253 8.45883Z" fill="white"/>
</g>
</svg>
