<svg width="64" height="64" viewBox="0 0 64 64" fill="none" xmlns="http://www.w3.org/2000/svg">
<g id="tdesign:precise-monitor">
<path id="Vector" d="M34.6663 5.3335V21.3335H29.333V5.3335H34.6663ZM10.6663 6.89616L26.437 22.6668L22.6663 26.4375L6.89567 10.6668L10.6663 6.89616ZM57.1037 10.6668L41.333 26.4375L37.5623 22.6668L53.333 6.89616L57.1037 10.6668ZM27.381 29.3335C27.9681 28.3168 28.8742 27.5222 29.9588 27.073C31.0435 26.6237 32.2461 26.5449 33.3801 26.8488C34.5141 27.1527 35.5161 27.8222 36.2308 28.7536C36.9455 29.685 37.333 30.8262 37.333 32.0002C37.333 33.1742 36.9455 34.3154 36.2308 35.2467C35.5161 36.1781 34.5141 36.8477 33.3801 37.1515C32.2461 37.4554 31.0435 37.3766 29.9588 36.9273C28.8742 36.4781 27.9681 35.6835 27.381 34.6668H5.33301V29.3335H27.381ZM42.6663 29.3335H58.6663V34.6668H42.6663V29.3335ZM26.437 41.3335L10.6663 57.1042L6.89567 53.3335L22.6663 37.5628L26.437 41.3335ZM41.333 37.5628L57.1037 53.3335L53.333 57.1042L37.5623 41.3335L41.333 37.5628ZM34.6663 42.6668V58.6668H29.333V42.6668H34.6663Z" fill="white"/>
</g>
</svg>
