<svg width="186" height="50" viewBox="0 0 186 50" fill="none" xmlns="http://www.w3.org/2000/svg">
<path d="M14.1344 0C12.2724 0 10.4409 0.396821 8.701 1.09888C6.99163 1.83147 5.43488 2.8693 4.12232 4.21238C2.80977 5.55546 1.77194 7.11221 1.06987 8.85211C0.367808 10.592 0.00151344 12.454 0.032038 14.316V19.0473H11.4787V12.1793C11.4787 11.8435 11.5398 11.5383 11.6619 11.233C11.784 10.9278 11.9671 10.6531 12.1808 10.4394C12.3945 10.2257 12.6692 10.0426 12.9744 9.92047C13.2797 9.79837 13.5849 9.73732 13.9207 9.73732H14.348C14.6533 9.73732 14.989 9.79837 15.2943 9.92047C15.5995 10.0426 15.8743 10.2257 16.0879 10.4394C16.3016 10.6531 16.4847 10.9278 16.6068 11.233C16.7289 11.5383 16.79 11.8435 16.79 12.1793V30.555C18.2857 30.555 19.7814 30.2498 21.1855 29.6698C22.5897 29.0899 23.8412 28.2352 24.9095 27.1668C25.9779 26.0985 26.8326 24.8164 27.382 23.4428C27.962 22.0387 28.2672 20.543 28.2672 19.0473V14.316C28.2672 10.531 26.802 6.86802 24.1464 4.18186C22.8338 2.83878 21.2771 1.80095 19.5677 1.06836C17.8278 0.366294 15.9964 0 14.1344 0Z" fill="#FEF5FF"/>
<path d="M14.3483 39.8651H13.9209C13.6157 39.8651 13.2799 39.8041 12.9747 39.682C12.6694 39.5599 12.4252 39.3767 12.181 39.1631C11.9674 38.9494 11.7842 38.6747 11.6621 38.3694C11.54 38.0642 11.479 37.7589 11.479 37.4232V19.0474C9.98328 19.0474 8.48758 19.3527 7.08345 19.9326C5.67933 20.5126 4.42782 21.3673 3.35946 22.4356C2.2911 23.504 1.43642 24.786 0.886976 26.1596C0.30701 27.5638 0.00176452 29.0595 0.00176452 30.5552V35.2254C-0.02876 37.0874 0.337535 38.9494 1.0396 40.6893C1.74166 42.4292 2.7795 44.0165 4.09205 45.329C5.4046 46.6721 6.96135 47.7099 8.67073 48.4425C10.3801 49.1751 12.2421 49.5414 14.1041 49.5414C15.9661 49.5414 17.8281 49.1751 19.5375 48.4425C21.2468 47.7099 22.8341 46.6721 24.1161 45.329C25.4287 43.9859 26.4665 42.4292 27.1686 40.6893C27.8706 38.9494 28.2064 37.0874 28.2064 35.2254V30.5552H16.7597V37.4232C16.7597 37.7589 16.6987 38.0642 16.5766 38.3694C16.4545 38.6747 16.2713 38.9494 16.0577 39.1631C15.844 39.3767 15.5693 39.5599 15.264 39.682C14.9893 39.8041 14.6841 39.8651 14.3483 39.8651ZM47.8337 14.5298H43.8044V35.0117H55.5869V31.1351H47.8032C47.8337 31.1656 47.8337 14.5298 47.8337 14.5298ZM68.4682 22.1304C67.8883 21.4283 67.1862 20.8484 66.3621 20.4821C65.5379 20.1158 64.6222 19.9326 63.7369 19.9937C62.7907 19.9937 61.875 20.1768 60.9897 20.5736C60.1351 20.9705 59.3719 21.5199 58.7309 22.2525C57.3878 23.7482 56.6553 25.7018 56.6553 27.7469C56.6553 29.7615 57.3878 31.7151 58.7309 33.2413C59.3414 33.9434 60.1351 34.5233 60.9897 34.9202C61.8444 35.317 62.7907 35.5001 63.7369 35.5001C65.7821 35.5001 67.3694 34.7981 68.4682 33.3634V35.1033H72.2228V20.4821H68.4682V22.1304ZM67.3388 30.7078C66.9725 31.0741 66.5147 31.3793 65.9958 31.593C65.5074 31.8067 64.9579 31.8982 64.439 31.8677C63.9201 31.8982 63.3707 31.7761 62.8823 31.593C62.3939 31.3793 61.936 31.1046 61.5697 30.7078C60.8371 29.8836 60.4403 28.8458 60.4403 27.7469C60.4403 26.648 60.8371 25.5797 61.5697 24.786C61.936 24.4197 62.3939 24.1145 62.8823 23.9008C63.3707 23.6871 63.9201 23.5956 64.439 23.6261C64.9885 23.5956 65.5074 23.7177 65.9958 23.9008C66.4841 24.1145 66.942 24.3892 67.3388 24.786C68.0714 25.6102 68.4988 26.648 68.4988 27.7469C68.4682 28.8153 68.0714 29.8836 67.3388 30.7078ZM81.899 30.2194L78.114 20.3905H73.9932L79.9455 34.5539C79.7013 35.4086 79.2129 36.1411 78.5413 36.7211C77.8393 37.2095 76.9846 37.4232 76.1299 37.3621V40.8724C77.7782 41.0251 79.4571 40.5672 80.8001 39.5904C82.0517 38.6442 83.059 37.1179 83.8221 35.0423L89.1333 20.3905H85.1041L81.899 30.2194ZM97.2834 19.9937C96.2456 19.9631 95.2383 20.1463 94.292 20.5126C93.3457 20.8789 92.491 21.4589 91.7585 22.1914C90.3543 23.6871 89.5912 25.6712 89.5912 27.7164C89.5912 29.7615 90.3848 31.7456 91.789 33.2413C93.2542 34.7065 95.1772 35.4391 97.5886 35.4391C100.397 35.4391 102.503 34.4012 103.938 32.2951L100.916 30.5246C100.519 31.013 100.031 31.4098 99.4506 31.654C98.8707 31.8982 98.2602 32.0203 97.6497 31.9898C95.4214 31.9898 94.0478 31.0741 93.5594 29.2426H104.548C104.64 28.7237 104.701 28.2048 104.701 27.6859C104.762 25.6407 103.999 23.6566 102.625 22.1914C101.954 21.4589 101.129 20.8789 100.214 20.5126C99.237 20.1463 98.2602 19.9631 97.2834 19.9937ZM93.4678 26.3428C93.6204 25.4881 94.1088 24.725 94.7804 24.1755C95.513 23.6261 96.3982 23.3514 97.2834 23.4124C98.1076 23.4124 98.9012 23.6566 99.5727 24.145C100.275 24.6944 100.763 25.4881 100.885 26.3733C100.885 26.3428 93.4678 26.3428 93.4678 26.3428ZM111.019 22.924V20.421H107.265V35.0423H111.019V28.0521C111.019 26.648 111.477 25.6407 112.363 25.0302C113.278 24.4197 114.347 24.1755 115.445 24.3282V20.1158C114.499 20.1158 113.583 20.36 112.759 20.8178C111.935 21.2757 111.325 22.0388 111.019 22.924ZM133.73 17.7043V14.5298H120.39V18.4064H128.663L120.177 31.8067V35.0423H133.913V31.1656H125.274C125.244 31.1656 133.73 17.7043 133.73 17.7043ZM142.765 19.9937C141.727 19.9631 140.72 20.1463 139.774 20.5126C138.827 20.8789 137.973 21.4589 137.24 22.1914C135.836 23.6871 135.073 25.6712 135.073 27.7164C135.073 29.7615 135.866 31.7456 137.27 33.2413C138.736 34.7065 140.659 35.4391 143.07 35.4391C145.878 35.4391 147.985 34.4012 149.419 32.2951L146.397 30.5246C146.001 31.013 145.512 31.4098 144.932 31.654C144.352 31.8982 143.742 32.0203 143.131 31.9898C140.903 31.9898 139.529 31.0741 139.041 29.2426H150.03C150.121 28.7237 150.182 28.2048 150.182 27.6859C150.243 25.6407 149.48 23.6566 148.107 22.1914C147.435 21.4589 146.611 20.8789 145.695 20.5126C144.749 20.1463 143.742 19.9631 142.765 19.9937ZM138.949 26.3428C139.102 25.4881 139.59 24.725 140.262 24.1755C140.994 23.6261 141.88 23.3514 142.765 23.4124C143.589 23.4124 144.383 23.6566 145.054 24.145C145.756 24.6944 146.245 25.4881 146.367 26.3733L138.949 26.3428ZM156.501 22.924V20.421H152.746V35.0423H156.501V28.0521C156.501 26.648 156.959 25.6407 157.844 25.0302C158.76 24.4197 159.828 24.1755 160.927 24.3282V20.1158C159.981 20.1158 159.065 20.36 158.241 20.8178C157.417 21.2757 156.806 22.0388 156.501 22.924ZM169.504 19.9937C167.734 20.0242 166.055 20.6347 164.682 21.7946C163.338 22.924 162.423 24.5113 162.087 26.2512C161.751 27.9911 162.026 29.792 162.881 31.3488C163.735 32.9055 165.078 34.1265 166.696 34.7981C168.314 35.4696 170.145 35.5307 171.824 35.0117C173.503 34.4928 174.968 33.3939 175.945 31.9288C176.922 30.4636 177.349 28.6932 177.166 26.9227C176.983 25.1523 176.22 23.504 174.968 22.2525C174.266 21.5199 173.412 20.9399 172.465 20.5736C171.519 20.1463 170.512 19.9631 169.504 19.9937ZM172.313 30.6162C171.946 30.9825 171.519 31.2877 171.031 31.4709C170.542 31.654 170.023 31.7761 169.504 31.7456C168.985 31.7456 168.467 31.654 167.978 31.4709C167.49 31.2877 167.062 30.9825 166.696 30.6162C165.964 29.8226 165.567 28.7847 165.567 27.7164C165.567 26.648 165.964 25.6102 166.696 24.8166C167.062 24.4503 167.49 24.145 167.978 23.9619C168.467 23.7787 168.985 23.6566 169.504 23.6871C170.023 23.6871 170.542 23.7787 171.031 23.9619C171.519 24.145 171.946 24.4503 172.313 24.8166C173.045 25.6102 173.442 26.648 173.442 27.7164C173.442 28.7847 173.045 29.8226 172.313 30.6162ZM185.072 30.5246H180.493V35.0423H185.072V30.5246Z" fill="#FEF5FF"/>
</svg>
